<svg xmlns="http://www.w3.org/2000/svg" viewBox="0 0 583 471" width="583" height="471" role="img" aria-label="Core Languages &amp; Tooling" font-family="ui-sans-serif,-apple-system,Segoe UI,Helvetica,Arial,sans-serif"><text x="291.5" y="32" text-anchor="middle" font-size="20.0" font-weight="800" fill="#480ca8">Core Languages &amp; Tooling</text><g transform="translate(281.5,246.0)"><polygon points="0.0,-152.0 131.6,-76.0 131.6,76.0 0.0,152.0 -131.6,76.0 -131.6,-76.0" fill="none" stroke="#dcd0f4" stroke-width="1.2" opacity="0.90"/><polygon points="0.0,-114.0 98.7,-57.0 98.7,57.0 0.0,114.0 -98.7,57.0 -98.7,-57.0" fill="none" stroke="#dcd0f4" stroke-width="1.2" opacity="0.78"/><polygon points="0.0,-76.0 65.8,-38.0 65.8,38.0 0.0,76.0 -65.8,38.0 -65.8,-38.0" fill="none" stroke="#dcd0f4" stroke-width="1.2" opacity="0.65"/><polygon points="0.0,-38.0 32.9,-19.0 32.9,19.0 0.0,38.0 -32.9,19.0 -32.9,-19.0" fill="none" stroke="#dcd0f4" stroke-width="1.2" opacity="0.53"/><line x1="0" y1="0" x2="0.0" y2="-152.0" stroke="#e8def7" stroke-width="1.2"/><line x1="0" y1="0" x2="131.6" y2="-76.0" stroke="#e8def7" stroke-width="1.2"/><line x1="0" y1="0" x2="131.6" y2="76.0" stroke="#e8def7" stroke-width="1.2"/><line x1="0" y1="0" x2="0.0" y2="152.0" stroke="#e8def7" stroke-width="1.2"/><line x1="0" y1="0" x2="-131.6" y2="76.0" stroke="#e8def7" stroke-width="1.2"/><line x1="0" y1="0" x2="-131.6" y2="-76.0" stroke="#e8def7" stroke-width="1.2"/><g><animateTransform attributeName="transform" type="scale" values="0.04;1" dur="1.1s" calcMode="spline" keyTimes="0;1" keySplines="0.22 1 0.36 1" fill="freeze"/><polygon points="0.0,-133.8 110.6,-63.8 105.3,60.8 0.0,136.8 -85.6,49.4 -92.1,-53.2" fill="#7b2cbf" fill-opacity="0.28" stroke="#e85d04" stroke-width="2.6" stroke-linejoin="round"/><circle cx="0.0" cy="-133.8" r="4.0" fill="#f48c06" stroke="#e85d04" stroke-width="1.4"/><circle cx="110.6" cy="-63.8" r="4.0" fill="#f48c06" stroke="#e85d04" stroke-width="1.4"/><circle cx="105.3" cy="60.8" r="4.0" fill="#f48c06" stroke="#e85d04" stroke-width="1.4"/><circle cx="0.0" cy="136.8" r="4.0" fill="#f48c06" stroke="#e85d04" stroke-width="1.4"/><circle cx="-85.6" cy="49.4" r="4.0" fill="#f48c06" stroke="#e85d04" stroke-width="1.4"/><circle cx="-92.1" cy="-53.2" r="4.0" fill="#f48c06" stroke="#e85d04" stroke-width="1.4"/></g><text x="0.0" y="-182.0" text-anchor="middle" font-size="16.0" font-weight="700" fill="#130626">Python</text><text x="0.0" y="-163.0" text-anchor="middle" font-size="15.0" font-weight="700" fill="#d9480f">88</text><text x="152.4" y="-94.0" text-anchor="start" font-size="16.0" font-weight="700" fill="#130626">Bash / Shell</text><text x="152.4" y="-75.0" text-anchor="start" font-size="15.0" font-weight="700" fill="#d9480f">84</text><text x="152.4" y="102.0" text-anchor="start" font-size="16.0" font-weight="700" fill="#130626">SQL &amp;</text><text x="152.4" y="121.2" text-anchor="start" font-size="16.0" font-weight="700" fill="#130626">Bases de Datos</text><text x="152.4" y="140.2" text-anchor="start" font-size="15.0" font-weight="700" fill="#d9480f">80</text><text x="0.0" y="190.0" text-anchor="middle" font-size="16.0" font-weight="700" fill="#130626">Git &amp; CI/CD</text><text x="0.0" y="209.0" text-anchor="middle" font-size="15.0" font-weight="700" fill="#d9480f">90</text><text x="-152.4" y="102.0" text-anchor="end" font-size="16.0" font-weight="700" fill="#130626">TypeScript /</text><text x="-152.4" y="121.2" text-anchor="end" font-size="16.0" font-weight="700" fill="#130626">JS</text><text x="-152.4" y="140.2" text-anchor="end" font-size="15.0" font-weight="700" fill="#d9480f">65</text><text x="-152.4" y="-94.0" text-anchor="end" font-size="16.0" font-weight="700" fill="#130626">HTML5 / CSS3</text><text x="-152.4" y="-75.0" text-anchor="end" font-size="15.0" font-weight="700" fill="#d9480f">70</text></g></svg>