<svg xmlns="http://www.w3.org/2000/svg" viewBox="0 0 693 564" width="693" height="564" role="img" aria-label="Core Languages &amp; Tooling" font-family="ui-sans-serif,-apple-system,Segoe UI,Helvetica,Arial,sans-serif"><text x="346.5" y="25" text-anchor="middle" font-size="15" font-weight="700" fill="#5a189a">Core Languages &amp; Tooling</text><g transform="translate(327.2,288.5)"><polygon points="0.0,-212.0 183.6,-106.0 183.6,106.0 0.0,212.0 -183.6,106.0 -183.6,-106.0" fill="none" stroke="#e2d5f8" stroke-width="1" opacity="0.85"/><polygon points="0.0,-159.0 137.7,-79.5 137.7,79.5 0.0,159.0 -137.7,79.5 -137.7,-79.5" fill="none" stroke="#e2d5f8" stroke-width="1" opacity="0.72"/><polygon points="0.0,-106.0 91.8,-53.0 91.8,53.0 0.0,106.0 -91.8,53.0 -91.8,-53.0" fill="none" stroke="#e2d5f8" stroke-width="1" opacity="0.60"/><polygon points="0.0,-53.0 45.9,-26.5 45.9,26.5 0.0,53.0 -45.9,26.5 -45.9,-26.5" fill="none" stroke="#e2d5f8" stroke-width="1" opacity="0.47"/><line x1="0" y1="0" x2="0.0" y2="-212.0" stroke="#ece4fa" stroke-width="1"/><line x1="0" y1="0" x2="183.6" y2="-106.0" stroke="#ece4fa" stroke-width="1"/><line x1="0" y1="0" x2="183.6" y2="106.0" stroke="#ece4fa" stroke-width="1"/><line x1="0" y1="0" x2="0.0" y2="212.0" stroke="#ece4fa" stroke-width="1"/><line x1="0" y1="0" x2="-183.6" y2="106.0" stroke="#ece4fa" stroke-width="1"/><line x1="0" y1="0" x2="-183.6" y2="-106.0" stroke="#ece4fa" stroke-width="1"/><g><animateTransform attributeName="transform" type="scale" values="0.04;1" dur="1.1s" calcMode="spline" keyTimes="0;1" keySplines="0.22 1 0.36 1" fill="freeze"/><polygon points="0.0,-186.6 154.2,-89.0 146.9,84.8 0.0,190.8 -119.3,68.9 -128.5,-74.2" fill="#7b2cbf" fill-opacity="0.24" stroke="#e85d04" stroke-width="2.4" stroke-linejoin="round"/><circle cx="0.0" cy="-186.6" r="3.5" fill="#f48c06" stroke="#e85d04" stroke-width="1.2"/><circle cx="154.2" cy="-89.0" r="3.5" fill="#f48c06" stroke="#e85d04" stroke-width="1.2"/><circle cx="146.9" cy="84.8" r="3.5" fill="#f48c06" stroke="#e85d04" stroke-width="1.2"/><circle cx="0.0" cy="190.8" r="3.5" fill="#f48c06" stroke="#e85d04" stroke-width="1.2"/><circle cx="-119.3" cy="68.9" r="3.5" fill="#f48c06" stroke="#e85d04" stroke-width="1.2"/><circle cx="-128.5" cy="-74.2" r="3.5" fill="#f48c06" stroke="#e85d04" stroke-width="1.2"/></g><text x="0.0" y="-237.0" text-anchor="middle" font-size="12.5" font-weight="600" fill="#1f2328">Python</text><text x="0.0" y="-222.0" text-anchor="middle" font-size="11" font-weight="500" fill="#d9480f">88</text><text x="200.9" y="-121.0" text-anchor="start" font-size="12.5" font-weight="600" fill="#1f2328">Bash / Shell</text><text x="200.9" y="-106.0" text-anchor="start" font-size="11" font-weight="500" fill="#d9480f">84</text><text x="200.9" y="130.0" text-anchor="start" font-size="12.5" font-weight="600" fill="#1f2328">SQL &amp; Bases de Datos</text><text x="200.9" y="145.0" text-anchor="start" font-size="11" font-weight="500" fill="#d9480f">80</text><text x="0.0" y="246.0" text-anchor="middle" font-size="12.5" font-weight="600" fill="#1f2328">Git &amp; CI/CD</text><text x="0.0" y="261.0" text-anchor="middle" font-size="11" font-weight="500" fill="#d9480f">90</text><text x="-200.9" y="130.0" text-anchor="end" font-size="12.5" font-weight="600" fill="#1f2328">TypeScript / JS</text><text x="-200.9" y="145.0" text-anchor="end" font-size="11" font-weight="500" fill="#d9480f">65</text><text x="-200.9" y="-121.0" text-anchor="end" font-size="12.5" font-weight="600" fill="#1f2328">HTML5 / CSS3</text><text x="-200.9" y="-106.0" text-anchor="end" font-size="11" font-weight="500" fill="#d9480f">70</text></g></svg>