<svg xmlns="http://www.w3.org/2000/svg" viewBox="0 0 899 526" width="899" height="526" role="img" aria-label="Security &amp; Systems Skills" font-family="ui-sans-serif,-apple-system,Segoe UI,Helvetica,Arial,sans-serif"><text x="449.5" y="25" text-anchor="middle" font-size="15" font-weight="700" fill="#5a189a">Security &amp; Systems Skills</text><g transform="translate(453.2,288.5)"><polygon points="0.0,-212.0 165.7,-132.2 206.7,47.2 92.0,191.0 -92.0,191.0 -206.7,47.2 -165.7,-132.2" fill="none" stroke="#e2d5f8" stroke-width="1" opacity="0.85"/><polygon points="0.0,-159.0 124.3,-99.1 155.0,35.4 69.0,143.3 -69.0,143.3 -155.0,35.4 -124.3,-99.1" fill="none" stroke="#e2d5f8" stroke-width="1" opacity="0.72"/><polygon points="0.0,-106.0 82.9,-66.1 103.3,23.6 46.0,95.5 -46.0,95.5 -103.3,23.6 -82.9,-66.1" fill="none" stroke="#e2d5f8" stroke-width="1" opacity="0.60"/><polygon points="0.0,-53.0 41.4,-33.0 51.7,11.8 23.0,47.8 -23.0,47.8 -51.7,11.8 -41.4,-33.0" fill="none" stroke="#e2d5f8" stroke-width="1" opacity="0.47"/><line x1="0" y1="0" x2="0.0" y2="-212.0" stroke="#ece4fa" stroke-width="1"/><line x1="0" y1="0" x2="165.7" y2="-132.2" stroke="#ece4fa" stroke-width="1"/><line x1="0" y1="0" x2="206.7" y2="47.2" stroke="#ece4fa" stroke-width="1"/><line x1="0" y1="0" x2="92.0" y2="191.0" stroke="#ece4fa" stroke-width="1"/><line x1="0" y1="0" x2="-92.0" y2="191.0" stroke="#ece4fa" stroke-width="1"/><line x1="0" y1="0" x2="-206.7" y2="47.2" stroke="#ece4fa" stroke-width="1"/><line x1="0" y1="0" x2="-165.7" y2="-132.2" stroke="#ece4fa" stroke-width="1"/><g><animateTransform attributeName="transform" type="scale" values="0.04;1" dur="1.1s" calcMode="spline" keyTimes="0;1" keySplines="0.22 1 0.36 1" fill="freeze"/><polygon points="0.0,-106.0 132.6,-105.7 62.0,14.2 73.6,152.8 -59.8,124.2 -103.3,23.6 -132.6,-105.7" fill="#7b2cbf" fill-opacity="0.24" stroke="#e85d04" stroke-width="2.4" stroke-linejoin="round"/><circle cx="0.0" cy="-106.0" r="3.5" fill="#f48c06" stroke="#e85d04" stroke-width="1.2"/><circle cx="132.6" cy="-105.7" r="3.5" fill="#f48c06" stroke="#e85d04" stroke-width="1.2"/><circle cx="62.0" cy="14.2" r="3.5" fill="#f48c06" stroke="#e85d04" stroke-width="1.2"/><circle cx="73.6" cy="152.8" r="3.5" fill="#f48c06" stroke="#e85d04" stroke-width="1.2"/><circle cx="-59.8" cy="124.2" r="3.5" fill="#f48c06" stroke="#e85d04" stroke-width="1.2"/><circle cx="-103.3" cy="23.6" r="3.5" fill="#f48c06" stroke="#e85d04" stroke-width="1.2"/><circle cx="-132.6" cy="-105.7" r="3.5" fill="#f48c06" stroke="#e85d04" stroke-width="1.2"/></g><text x="0.0" y="-237.0" text-anchor="middle" font-size="12.5" font-weight="600" fill="#1f2328">Administración Linux</text><text x="181.4" y="-149.6" text-anchor="start" font-size="12.5" font-weight="600" fill="#1f2328">Redes &amp; Protocolos TCP/IP</text><text x="226.2" y="55.6" text-anchor="start" font-size="12.5" font-weight="600" fill="#1f2328">Seguridad Defensiva &amp; OWASP</text><text x="100.7" y="223.0" text-anchor="start" font-size="12.5" font-weight="600" fill="#1f2328">Docker &amp; Contenedores</text><text x="-100.7" y="223.0" text-anchor="end" font-size="12.5" font-weight="600" fill="#1f2328">Automatización &amp; Scripting</text><text x="-226.2" y="55.6" text-anchor="end" font-size="12.5" font-weight="600" fill="#1f2328">Hardening &amp; Vulnerabilidades</text><text x="-181.4" y="-149.6" text-anchor="end" font-size="12.5" font-weight="600" fill="#1f2328">Bases de Datos &amp; APIs</text></g></svg>